<svg width="1441" height="1074" viewBox="0 0 1441 1074" fill="none" xmlns="http://www.w3.org/2000/svg">
<g clip-path="url(#clip0_77_898)">
<path d="M946.459 394.899L946.45 396.27C944.163 396.256 941.849 396.296 939.562 396.406L939.501 395.034C941.816 394.938 944.158 394.884 946.459 394.899ZM953.414 395.11C955.727 395.236 958.068 395.417 960.353 395.653L960.206 397.011C957.935 396.774 955.622 396.593 953.336 396.467L953.414 395.096L953.414 395.11ZM932.555 395.516L932.685 396.875C930.397 397.095 928.095 397.358 925.848 397.69L925.649 396.33C927.924 395.999 930.253 395.723 932.555 395.516ZM967.262 396.557C969.547 396.905 971.844 397.321 974.114 397.793L973.828 399.136C971.586 398.678 969.302 398.261 967.046 397.914L967.262 396.557ZM918.768 397.492L919.036 398.838C916.788 399.266 914.526 399.765 912.306 400.319L911.968 398.986C914.202 398.432 916.492 397.934 918.768 397.492ZM980.894 399.347C983.136 399.93 985.39 400.568 987.589 401.248L987.179 402.548C985.008 401.868 982.781 401.244 980.553 400.662L980.908 399.334L980.894 399.347ZM905.263 400.8L905.67 402.105C903.476 402.756 901.268 403.476 899.129 404.238L898.666 402.947C900.833 402.185 903.055 401.451 905.277 400.786L905.263 400.8ZM994.171 403.48C996.342 404.27 998.526 405.129 1000.64 406.03L1000.09 407.287C998.005 406.401 995.849 405.541 993.692 404.765L994.171 403.48ZM892.165 405.441L892.697 406.705C890.599 407.565 888.473 408.507 886.402 409.478L885.8 408.241C887.899 407.256 890.039 406.314 892.165 405.441ZM1006.97 408.897C1009.04 409.909 1011.13 410.975 1013.14 412.083L1012.47 413.284C1010.47 412.19 1008.41 411.124 1006.35 410.127L1006.95 408.897L1006.97 408.897ZM879.599 411.36L880.256 412.57C878.254 413.638 876.237 414.775 874.276 415.954L873.563 414.786C875.552 413.593 877.583 412.442 879.599 411.36ZM1019.15 415.572C1021.09 416.777 1023.05 418.05 1024.97 419.351L1024.19 420.483C1022.3 419.182 1020.37 417.922 1018.43 416.746L1019.16 415.586L1019.15 415.572ZM867.691 418.503L868.473 419.645C866.58 420.921 864.687 422.253 862.863 423.613L862.025 422.513C863.863 421.139 865.77 419.793 867.691 418.503ZM1030.59 423.42C1032.42 424.818 1034.24 426.271 1035.99 427.751L1035.1 428.799C1033.36 427.332 1031.55 425.893 1029.75 424.51L1030.6 423.42L1030.59 423.42ZM856.579 426.788L857.473 427.847C855.731 429.291 853.989 430.804 852.288 432.345L851.353 431.341C853.067 429.786 854.823 428.259 856.579 426.802L856.579 426.788ZM1041.17 432.344C1042.4 433.488 1043.62 434.674 1044.82 435.873L1046.13 437.184L1045.14 438.148L1043.83 436.837C1042.65 435.651 1041.43 434.48 1040.22 433.349L1041.17 432.358L1041.17 432.344ZM846.347 436.09L847.325 437.066L842.388 441.885L841.41 440.908L846.347 436.09ZM1050.99 442.052L1055.86 446.934L1054.87 447.898L1050 443.016L1050.99 442.052ZM836.487 445.727L837.465 446.703L832.528 451.522L831.551 450.545L836.487 445.727ZM1060.72 451.802L1065.6 456.683L1064.61 457.647L1059.73 452.765L1060.72 451.802ZM826.614 455.35L827.591 456.326L822.655 461.144L821.677 460.168L826.614 455.35ZM1070.46 461.551L1075.33 466.433L1074.34 467.396L1069.47 462.515L1070.46 461.551ZM816.754 464.973L817.732 465.949L812.795 470.768L811.817 469.791L816.754 464.973ZM1080.21 471.314L1085.08 476.196L1084.09 477.16L1079.22 472.278L1080.21 471.314ZM806.895 474.596L807.872 475.572L802.935 480.391L801.958 479.414L806.895 474.596ZM1089.94 481.064L1094.82 485.946L1093.83 486.909L1088.95 482.028L1089.94 481.064ZM797.035 484.219L798.013 485.195L793.076 490.014L792.098 489.037L797.035 484.219ZM1099.68 490.813L1104.55 495.695L1103.56 496.659L1098.69 491.777L1099.68 490.813ZM787.175 493.842L788.153 494.818L783.216 499.637L782.239 498.66L787.175 493.842ZM1109.41 500.563L1114.29 505.444L1113.29 506.408L1108.42 501.526L1109.41 500.563ZM777.316 503.479L778.293 504.455L773.357 509.274L772.379 508.297L777.316 503.479ZM1119.15 510.312L1124.02 515.194L1123.03 516.158L1118.16 511.276L1119.15 510.312ZM767.456 513.102L768.434 514.078L763.497 518.897L762.519 517.92L767.456 513.102ZM1128.88 520.076L1133.75 524.957L1132.76 525.921L1127.89 521.039L1128.88 520.076ZM757.597 522.725L758.574 523.701L753.637 528.52L752.66 527.543L757.597 522.725ZM1138.61 529.825L1143.49 534.707L1142.5 535.67L1137.62 530.789L1138.61 529.825ZM747.737 532.348L748.715 533.324L743.778 538.143L742.8 537.166L747.737 532.348ZM1148.35 539.574L1153.22 544.456L1152.23 545.42L1147.36 540.538L1148.35 539.574ZM737.877 541.971L738.855 542.947L733.918 547.766L732.941 546.789L737.877 541.971ZM1158.08 549.324L1162.96 554.206L1161.97 555.169L1157.09 550.287L1158.08 549.324ZM728.004 551.608L728.982 552.584L724.045 557.403L723.067 556.426L728.004 551.608ZM1167.83 559.073L1172.71 563.955L1171.72 564.919L1166.84 560.037L1167.83 559.073ZM718.144 561.231L719.122 562.207L714.185 567.026L713.208 566.049L718.144 561.231ZM1177.57 568.823L1182.44 573.704L1181.45 574.668L1176.58 569.786L1177.57 568.823ZM708.285 570.854L709.262 571.83L704.326 576.649L703.348 575.672L708.285 570.854ZM1187.3 578.586L1192.18 583.468L1191.19 584.431L1186.31 579.55L1187.3 578.586ZM698.425 580.477L699.403 581.453L694.466 586.272L693.488 585.295L698.425 580.477ZM1197.04 588.336L1201.91 593.217L1200.92 594.181L1196.05 589.299L1197.04 588.336ZM688.566 590.1L689.543 591.076L684.606 595.895L683.629 594.919L688.566 590.1ZM1206.77 598.085L1211.65 602.967L1210.65 603.93L1205.78 599.049L1206.77 598.085ZM678.706 599.723L679.684 600.7L674.747 605.518L673.769 604.542L678.706 599.723ZM1216.51 607.834L1221.38 612.716L1220.39 613.68L1215.52 608.798L1216.51 607.834ZM668.846 609.36L669.824 610.336L664.887 615.155L663.91 614.179L668.846 609.36ZM1226.24 617.584L1231.11 622.466L1230.12 623.429L1225.25 618.548L1226.24 617.584ZM658.987 618.983L659.964 619.959L655.028 624.778L654.05 623.802L658.987 618.983ZM1235.97 627.347L1240.85 632.229L1239.86 633.193L1234.98 628.311L1235.97 627.347ZM649.127 628.606L650.105 629.583L645.168 634.401L644.19 633.425L649.127 628.606ZM1245.71 637.097L1250.58 641.978L1249.59 642.942L1244.72 638.06L1245.71 637.097ZM639.254 638.229L640.231 639.206L635.294 644.024L634.317 643.048L639.254 638.229ZM1255.46 646.846L1260.33 651.728L1259.34 652.692L1254.47 647.81L1255.46 646.846ZM629.394 647.852L630.372 648.829L625.435 653.647L624.457 652.671L629.394 647.852ZM1265.19 656.596L1270.07 661.477L1269.08 662.441L1264.2 657.559L1265.19 656.596ZM619.534 657.475L620.512 658.452L615.575 663.27L614.598 662.294L619.534 657.475ZM1274.93 666.345L1279.8 671.227L1278.81 672.19L1273.94 667.309L1274.93 666.345ZM609.675 667.112L610.652 668.089L605.716 672.907L604.738 671.931L609.675 667.112ZM1284.66 676.094L1289.54 680.976L1288.55 681.94L1283.67 677.058L1284.66 676.094ZM599.815 676.735L600.793 677.712L595.856 682.53L594.878 681.554L599.815 676.735ZM1294.4 685.858L1299.27 690.739L1298.28 691.703L1293.41 686.821L1294.4 685.858ZM589.956 686.358L590.933 687.335L585.997 692.153L585.019 691.177L589.956 686.358ZM1304.13 695.607L1309.01 700.489L1308.01 701.453L1303.14 696.571L1304.13 695.607ZM580.096 695.981L581.074 696.958L576.137 701.776L575.159 700.8L580.096 695.981ZM1313.87 705.357L1318.74 710.238L1317.75 711.202L1312.88 706.32L1313.87 705.357ZM570.237 705.604L571.214 706.581L566.277 711.399L565.3 710.423L570.237 705.604ZM1323.6 715.106L1328.47 719.988L1327.48 720.951L1322.61 716.07L1323.6 715.106ZM560.377 715.241L561.354 716.218L556.418 721.036L555.44 720.06L560.377 715.241ZM1333.33 724.856L1338.21 729.737L1337.22 730.701L1332.34 725.819L1333.33 724.856ZM550.503 724.864L551.481 725.841L546.544 730.659L545.567 729.683L550.503 724.864ZM1343.07 734.619L1347.94 739.501L1346.95 740.464L1342.08 735.582L1343.07 734.619ZM540.644 734.487L541.621 735.464L536.685 740.282L535.707 739.306L540.644 734.487ZM1352.82 744.368L1357.69 749.25L1356.7 750.214L1351.83 745.332L1352.82 744.368ZM530.784 744.11L531.762 745.087L526.825 749.905L525.847 748.929L530.784 744.11ZM1362.55 754.118L1367.43 758.999L1366.44 759.963L1361.56 755.081L1362.55 754.118ZM520.925 753.733L521.902 754.71L516.965 759.528L515.988 758.552L520.925 753.733ZM1372.29 763.867L1377.16 768.749L1376.17 769.713L1371.3 764.831L1372.29 763.867ZM511.065 763.357L512.043 764.333L507.106 769.151L506.128 768.175L511.065 763.357ZM1382.02 773.617L1386.9 778.498L1385.91 779.462L1381.03 774.58L1382.02 773.617ZM501.205 772.993L502.183 773.97L497.246 778.788L496.269 777.812L501.205 772.993ZM1391.76 783.366L1396.63 788.248L1395.64 789.211L1390.77 784.33L1391.76 783.366ZM491.346 782.616L492.323 783.593L487.387 788.411L486.409 787.435L491.346 782.616ZM1401.49 793.129L1406.37 798.011L1405.37 798.975L1400.5 794.093L1401.49 793.129ZM481.486 792.24L482.464 793.216L477.527 798.034L476.549 797.058L481.486 792.24ZM1411.23 802.879L1416.1 807.761L1415.11 808.724L1410.24 803.843L1411.23 802.879ZM471.627 801.863L472.604 802.839L467.667 807.657L466.69 806.681L471.627 801.863ZM1420.96 812.628L1425.83 817.51L1424.84 818.474L1419.97 813.592L1420.96 812.628ZM461.753 811.486L462.731 812.462L457.794 817.28L456.816 816.304L461.753 811.486ZM1430.69 822.378L1435.57 827.259L1434.58 828.223L1429.7 823.341L1430.69 822.378ZM451.893 821.122L452.871 822.099L447.934 826.917L446.957 825.941L451.893 821.122ZM442.034 830.746L443.012 831.722L438.075 836.54L437.097 835.564L442.034 830.746ZM432.174 840.369L433.152 841.345L428.215 846.163L427.238 845.187L432.174 840.369ZM422.315 849.992L423.292 850.968L418.355 855.786L417.378 854.81L422.315 849.992ZM412.455 859.615L413.433 860.591L408.496 865.409L407.518 864.433L412.455 859.615ZM402.595 869.238L403.573 870.214L398.636 875.033L397.659 874.056L402.595 869.238ZM392.736 878.875L393.713 879.851L388.777 884.669L387.799 883.693L392.736 878.875ZM382.876 888.498L383.854 889.474L378.917 894.292L377.939 893.316L382.876 888.498ZM373.017 898.121L373.994 899.097L369.058 903.916L368.08 902.939L373.017 898.121ZM363.143 907.744L364.121 908.72L359.184 913.539L358.206 912.562L363.143 907.744ZM353.284 917.367L354.261 918.343L349.324 923.162L348.347 922.185L353.284 917.367ZM343.424 926.99L344.402 927.966L339.465 932.785L338.487 931.808L343.424 926.99ZM333.564 936.627L334.542 937.603L329.605 942.422L328.628 941.445L333.564 936.627ZM323.705 946.25L324.682 947.226L319.746 952.045L318.768 951.068L323.705 946.25ZM313.845 955.873L314.823 956.849L309.886 961.668L308.908 960.691L313.845 955.873ZM303.986 965.496L304.963 966.472L300.026 971.291L299.049 970.314L303.986 965.496ZM294.126 975.119L295.104 976.095L290.167 980.914L289.189 979.937L294.126 975.119ZM284.266 984.756L285.244 985.732L280.307 990.551L279.33 989.574L284.266 984.756ZM274.407 994.379L275.384 995.355L270.448 1000.17L269.47 999.197L274.407 994.379ZM264.533 1004L265.511 1004.98L260.574 1009.8L259.597 1008.82L264.533 1004ZM254.674 1013.62L255.651 1014.6L250.715 1019.42L249.737 1018.44L254.674 1013.62ZM244.814 1023.25L245.792 1024.22L240.855 1029.04L239.877 1028.07L244.814 1023.25ZM234.955 1032.87L235.932 1033.85L230.995 1038.67L230.018 1037.69L234.955 1032.87ZM225.095 1042.51L226.072 1043.48L221.136 1048.3L220.158 1047.33L225.095 1042.51ZM215.235 1052.13L216.213 1053.11L212.517 1056.71L211.54 1055.74L215.235 1052.13Z" fill="#EF476F"/>
<path d="M154.888 0.954772L749.416 596.451C802.826 649.955 890.307 650.519 944.402 597.709L1203.9 344.412C1230.37 318.571 1265.44 304.469 1302.63 304.708C1339.83 304.948 1374.71 319.502 1400.84 345.682L1438.43 383.313L1437.44 384.277L1399.87 346.646C1374 320.731 1339.46 306.318 1302.62 306.08C1265.79 305.843 1231.08 319.795 1204.87 345.388L945.366 598.685C890.727 652.032 802.373 651.462 748.412 597.415L153.884 1.91835L154.874 0.954682L154.888 0.954772Z" fill="#EF476F"/>
<path d="M889.691 11.1821L890.669 12.1584L416.809 474.699C390.605 500.278 376.042 534.426 375.807 570.843C375.572 607.26 389.693 641.594 415.565 667.509L815.952 1068.53L814.961 1069.5L414.575 668.459C388.442 642.279 374.17 607.612 374.407 570.821C374.645 534.03 389.348 499.549 415.831 473.709L889.691 11.1682L889.691 11.1821Z" fill="#EF476F"/>
<path d="M1255.52 13.5417L1256.5 14.5042L1079.39 187.389L1078.41 186.413L1255.52 13.5417Z" fill="#EF476F"/>
<path d="M1436 608.045L1436.98 609.021L1191.13 848.992C1137.03 901.802 1136.48 988.299 1189.88 1041.8L1217.82 1069.78L1216.83 1070.74L1188.89 1042.77C1162.76 1016.59 1148.49 981.919 1148.73 945.127C1148.96 908.336 1163.67 873.856 1190.15 848.015L1436 608.045Z" fill="#EF476F"/>
<path d="M1108.21 723.833L1109.18 724.809L976.296 854.521C922.2 907.331 921.642 993.828 975.052 1047.33L996.105 1068.42L995.115 1069.38L974.062 1048.3C920.115 994.248 920.679 906.892 975.318 853.559L1108.21 723.847L1108.21 723.833Z" fill="#EF476F"/>
<path d="M283.763 3.96952L288.638 8.85119L287.647 9.81488L282.773 4.93319L283.763 3.96952ZM1329.14 13.5948L1330.12 14.5712L1325.18 19.3896L1324.2 18.4132L1329.14 13.5948ZM293.498 13.7189L298.372 18.6006L297.382 19.5643L292.508 14.6826L293.498 13.7189ZM1319.28 23.2317L1320.26 24.2081L1315.32 29.0265L1314.34 28.0501L1319.28 23.2317ZM303.233 23.4685L308.107 28.3502L307.117 29.3137L302.243 24.432L303.233 23.4685ZM1309.42 32.8548L1310.4 33.8311L1305.46 38.6495L1304.48 37.6732L1309.42 32.8548ZM312.967 33.2179L317.842 38.0996L316.851 39.0632L311.977 34.1815L312.967 33.2179ZM1299.56 42.4778L1300.54 43.4542L1295.6 48.2726L1294.62 47.2962L1299.56 42.4778ZM322.702 42.9673L327.576 47.849L326.586 48.8127L321.712 43.931L322.702 42.9673ZM1289.7 52.1008L1290.68 53.0772L1285.74 57.8956L1284.76 56.9192L1289.7 52.1008ZM332.437 52.7306L337.311 57.6123L336.321 58.576L331.446 53.6943L332.437 52.7306ZM1279.84 61.724L1280.82 62.7003L1275.88 67.5187L1274.9 66.5424L1279.84 61.724ZM342.185 62.4801L347.059 67.3618L346.069 68.3255L341.195 63.4438L342.185 62.4801ZM1269.98 71.3609L1270.96 72.3372L1266.02 77.1556L1265.04 76.1793L1269.98 71.3609ZM351.92 72.2295L356.794 77.1112L355.804 78.0749L350.93 73.1932L351.92 72.2295ZM1260.12 80.9839L1261.1 81.9603L1256.16 86.7787L1255.19 85.8023L1260.12 80.9839ZM361.654 81.979L366.528 86.8607L365.538 87.8244L360.664 82.9427L361.654 81.979ZM1250.25 90.6069L1251.23 91.5833L1246.29 96.4017L1245.31 95.4253L1250.25 90.6069ZM371.389 91.7285L376.263 96.6102L375.273 97.5738L370.399 92.6921L371.389 91.7285ZM1240.39 100.23L1241.37 101.206L1236.43 106.025L1235.45 105.048L1240.39 100.23ZM381.124 101.478L385.998 106.36L385.008 107.323L380.133 102.442L381.124 101.478ZM1230.53 109.853L1231.51 110.829L1226.57 115.648L1225.59 114.671L1230.53 109.853ZM390.858 111.241L395.732 116.123L394.742 117.087L389.868 112.205L390.858 111.241ZM1220.67 119.476L1221.65 120.452L1216.71 125.271L1215.73 124.294L1220.67 119.476ZM400.593 120.991L405.467 125.872L404.477 126.836L399.603 121.954L400.593 120.991ZM1210.81 129.113L1211.79 130.089L1206.85 134.908L1205.87 133.931L1210.81 129.113ZM410.327 130.74L415.201 135.622L414.211 136.585L409.337 131.704L410.327 130.74ZM1200.95 138.736L1201.93 139.712L1196.99 144.531L1196.01 143.554L1200.95 138.736ZM420.062 140.49L424.936 145.371L423.946 146.335L419.072 141.453L420.062 140.49ZM1191.09 148.359L1192.07 149.335L1187.13 154.154L1186.15 153.178L1191.09 148.359ZM429.811 150.239L434.685 155.121L433.695 156.084L428.82 151.203L429.811 150.239ZM1181.23 157.982L1182.21 158.959L1177.27 163.777L1176.29 162.801L1181.23 157.982ZM439.545 160.002L444.419 164.884L443.429 165.848L438.555 160.966L439.545 160.002ZM1171.37 167.605L1172.35 168.582L1167.41 173.4L1166.44 172.424L1171.37 167.605ZM449.28 169.752L454.154 174.633L453.164 175.597L448.29 170.715L449.28 169.752ZM1161.51 177.228L1162.49 178.205L1157.55 183.023L1156.58 182.047L1161.51 177.228ZM459.014 179.501L463.888 184.383L462.898 185.347L458.024 180.465L459.014 179.501ZM1151.64 186.865L1152.62 187.841L1147.68 192.66L1146.7 191.683L1151.64 186.865ZM468.749 189.251L473.623 194.132L472.633 195.096L467.759 190.214L468.749 189.251ZM1141.78 196.488L1142.76 197.464L1137.82 202.283L1136.84 201.307L1141.78 196.488ZM478.484 199L483.358 203.882L482.368 204.846L477.493 199.964L478.484 199ZM1131.92 206.111L1132.9 207.088L1127.96 211.906L1126.98 210.93L1131.92 206.111ZM488.218 208.75L493.092 213.631L492.102 214.595L487.228 209.713L488.218 208.75ZM1122.06 215.734L1123.04 216.711L1118.1 221.529L1117.12 220.553L1122.06 215.734ZM497.953 218.513L502.827 223.395L501.837 224.358L496.963 219.477L497.953 218.513ZM1112.2 225.357L1113.18 226.334L1108.24 231.152L1107.26 230.176L1112.2 225.357ZM507.687 228.262L512.562 233.144L511.571 234.108L506.697 229.226L507.687 228.262ZM1102.34 234.994L1103.32 235.971L1098.38 240.789L1097.4 239.813L1102.34 234.994ZM517.422 238.012L522.296 242.893L521.306 243.857L516.432 238.975L517.422 238.012ZM1092.48 244.617L1093.46 245.594L1088.52 250.412L1087.54 249.436L1092.48 244.617ZM527.17 247.761L532.045 252.643L531.055 253.607L526.18 248.725L527.17 247.761ZM1082.62 254.24L1083.6 255.217L1078.66 260.035L1077.68 259.059L1082.62 254.24ZM536.905 257.511L541.779 262.392L540.789 263.356L535.915 258.474L536.905 257.511ZM1072.76 263.863L1073.74 264.84L1068.8 269.658L1067.83 268.682L1072.76 263.863ZM546.64 267.274L551.514 272.156L550.524 273.119L545.649 268.238L546.64 267.274ZM1062.89 273.486L1063.87 274.463L1058.93 279.281L1057.95 278.305L1062.89 273.486ZM556.374 277.023L561.248 281.905L560.258 282.869L555.384 277.987L556.374 277.023ZM1053.03 283.109L1054.01 284.086L1049.07 288.904L1048.09 287.928L1053.03 283.109ZM566.109 286.773L570.983 291.655L569.993 292.618L565.119 287.737L566.109 286.773ZM1043.17 292.746L1044.15 293.723L1039.21 298.541L1038.23 297.565L1043.17 292.746ZM575.844 296.522L580.718 301.404L579.728 302.368L574.853 297.486L575.844 296.522ZM1033.31 302.369L1034.29 303.346L1029.35 308.164L1028.37 307.188L1033.31 302.369ZM585.578 306.272L590.452 311.153L589.462 312.117L584.588 307.235L585.578 306.272ZM1023.45 311.992L1024.43 312.969L1019.49 317.787L1018.51 316.811L1023.45 311.992ZM595.313 316.021L600.187 320.903L599.197 321.867L594.323 316.985L595.313 316.021ZM1013.59 321.615L1014.57 322.592L1009.63 327.41L1008.65 326.434L1013.59 321.615ZM605.047 325.785L609.922 330.666L608.931 331.63L604.057 326.748L605.047 325.785ZM1003.73 331.239L1004.71 332.215L999.772 337.033L998.794 336.057L1003.73 331.239ZM614.796 335.534L619.67 340.416L618.68 341.379L613.806 336.498L614.796 335.534ZM993.871 340.862L994.849 341.838L989.912 346.656L988.935 345.68L993.871 340.862ZM624.53 345.284L629.405 350.165L628.415 351.129L623.54 346.247L624.53 345.284ZM984.012 350.498L984.989 351.475L980.052 356.293L979.075 355.317L984.012 350.498ZM634.265 355.033L639.139 359.915L638.149 360.878L633.275 355.997L634.265 355.033ZM974.138 360.121L975.116 361.098L970.179 365.916L969.201 364.94L974.138 360.121ZM644 364.782L648.874 369.664L647.884 370.628L643.01 365.746L644 364.782ZM964.279 369.745L965.256 370.721L960.319 375.539L959.342 374.563L964.279 369.745ZM653.734 374.546L658.608 379.427L657.618 380.391L652.744 375.509L653.734 374.546ZM954.419 379.368L955.397 380.344L950.46 385.162L949.482 384.186L954.419 379.368ZM663.469 384.295L668.343 389.177L667.353 390.14L662.479 385.259L663.469 384.295ZM944.559 388.991L945.537 389.967L940.6 394.785L939.623 393.809L944.559 388.991ZM673.203 394.045L678.078 398.926L677.088 399.89L672.213 395.008L673.203 394.045ZM934.7 398.628L935.677 399.604L930.741 404.422L929.763 403.446L934.7 398.628ZM682.938 403.794L687.812 408.676L686.822 409.639L681.948 404.758L682.938 403.794ZM924.84 408.251L925.818 409.227L920.881 414.045L919.903 413.069L924.84 408.251ZM692.673 413.543L697.547 418.425L696.557 419.389L691.683 414.507L692.673 413.543ZM914.981 417.874L915.958 418.85L911.021 423.668L910.044 422.692L914.981 417.874ZM702.421 423.293L707.295 428.175L706.305 429.138L701.431 424.257L702.421 423.293ZM905.121 427.497L906.099 428.473L903.686 430.827C902.835 431.653 901.985 432.465 901.134 433.264L900.185 432.26C901.035 431.475 901.886 430.663 902.708 429.851L905.121 427.497ZM712.226 432.932C713.92 434.481 715.657 435.989 717.394 437.441L716.5 438.489C714.735 437.036 712.985 435.501 711.277 433.938L712.212 432.932L712.226 432.932ZM895.028 436.813L895.922 437.859C894.166 439.344 892.341 440.787 890.503 442.189L889.665 441.102C891.475 439.728 893.286 438.285 895.028 436.813ZM722.785 441.675C724.619 443.045 726.495 444.374 728.385 445.647L727.602 446.778C725.698 445.491 723.794 444.148 721.946 442.765L722.785 441.675ZM884.096 445.113L884.878 446.241C882.971 447.545 881.009 448.821 879.048 450.014L878.321 448.845C880.255 447.666 882.203 446.403 884.082 445.113L884.096 445.113ZM734.182 449.343C736.142 450.519 738.144 451.669 740.16 452.735L739.501 453.936C737.471 452.842 735.442 451.693 733.468 450.502L734.182 449.329L734.182 449.343ZM872.381 452.271L873.053 453.467C871.022 454.577 868.951 455.63 866.879 456.643L866.278 455.405C868.335 454.407 870.393 453.353 872.395 452.271L872.381 452.271ZM746.307 455.837C748.366 456.807 750.48 457.749 752.594 458.622L752.06 459.893C749.917 459.006 747.776 458.064 745.703 457.081L746.307 455.851L746.307 455.837ZM859.995 458.247L860.542 459.512C858.429 460.399 856.248 461.258 854.067 462.048L853.591 460.77C855.744 459.98 857.897 459.135 859.995 458.247ZM759.022 461.088C761.165 461.85 763.364 462.571 765.563 463.237L765.153 464.551C762.94 463.885 760.714 463.15 758.543 462.374L759.009 461.088L759.022 461.088ZM847.063 462.959L847.471 464.264C845.277 464.943 843.014 465.579 840.779 466.147L840.427 464.814C842.648 464.247 844.883 463.624 847.05 462.945L847.063 462.959ZM772.203 465.067C774.417 465.622 776.673 466.122 778.929 466.552L778.657 467.894C776.387 467.45 774.09 466.936 771.862 466.382L772.203 465.053L772.203 465.067ZM833.71 466.365L833.992 467.711C831.744 468.167 829.441 468.582 827.139 468.928L826.926 467.568C829.201 467.223 831.49 466.822 833.71 466.365ZM785.725 467.718C787.996 468.052 790.295 468.33 792.566 468.538L792.432 469.896C790.133 469.673 787.821 469.395 785.523 469.061L785.726 467.704L785.725 467.718ZM820.088 468.439L820.232 469.798C817.93 470.032 815.601 470.211 813.286 470.335L813.211 468.963C815.499 468.839 817.814 468.66 820.088 468.425L820.088 468.439ZM799.436 469.012C801.265 469.093 803.108 469.147 804.937 469.159L806.323 469.168L806.314 470.526L804.914 470.517C803.071 470.505 801.201 470.465 799.358 470.384L799.422 469.012L799.436 469.012Z" fill="#EF476F"/>
<path d="M1078.34 168.411C1068.39 168.347 1060.27 176.267 1060.21 186.101C1060.14 195.936 1068.16 203.96 1078.11 204.024C1088.06 204.088 1096.17 196.168 1096.24 186.334C1096.3 176.499 1088.29 168.475 1078.34 168.411Z" fill="#EF476F"/>
<path d="M1109.56 698.898C1099.61 698.833 1091.49 706.754 1091.43 716.588C1091.37 726.422 1099.38 734.447 1109.33 734.511C1119.28 734.575 1127.4 726.655 1127.46 716.82C1127.52 706.986 1119.51 698.962 1109.56 698.898Z" fill="#EF476F"/>
<path d="M654.985 919.313C655.019 914.019 659.384 909.752 664.747 909.786C670.109 909.821 674.419 914.144 674.385 919.438C674.351 924.731 669.986 928.999 664.623 928.965C659.26 928.93 654.951 924.606 654.985 919.313Z" fill="#EF476F"/>
<path d="M629.636 874.61C624.279 874.576 619.908 878.841 619.874 884.137C619.84 889.433 624.155 893.754 629.512 893.789C634.87 893.823 639.24 889.558 639.274 884.262C639.309 878.966 634.993 874.645 629.636 874.61Z" fill="#EF476F"/>
<path d="M1142 396.271C1136.64 396.236 1132.27 400.501 1132.24 405.797C1132.2 411.093 1136.52 415.415 1141.87 415.449C1147.23 415.484 1151.6 411.219 1151.64 405.923C1151.67 400.627 1147.36 396.305 1142 396.271Z" fill="#EF476F"/>
<path d="M1142.05 388.732C1151.59 388.794 1159.32 396.521 1159.26 405.972C1159.2 415.422 1151.37 423.049 1141.83 422.988C1132.28 422.926 1124.55 415.199 1124.61 405.748C1124.68 396.298 1132.5 388.671 1142.05 388.732ZM1141.83 421.616C1150.62 421.672 1157.82 414.651 1157.87 405.963C1157.93 397.274 1150.82 390.161 1142.04 390.104C1133.25 390.048 1126.06 397.069 1126 405.757C1125.94 414.446 1133.05 421.559 1141.83 421.616Z" fill="#EF476F"/>
<path d="M366.297 558.435C366.331 553.141 370.696 548.874 376.059 548.908C381.422 548.943 385.732 553.266 385.697 558.56C385.663 563.853 381.298 568.121 375.936 568.087C370.573 568.052 366.263 563.728 366.297 558.435Z" fill="#EF476F"/>
<path d="M376.108 541.37C385.655 541.431 393.38 549.158 393.319 558.609C393.258 568.06 385.434 575.687 375.887 575.625C366.339 575.563 358.615 567.836 358.676 558.386C358.737 548.935 366.56 541.308 376.108 541.37ZM375.896 574.253C384.681 574.31 391.877 567.289 391.933 558.6C391.989 549.912 384.884 542.798 376.099 542.742C367.313 542.685 360.117 549.706 360.061 558.395C360.005 567.083 367.11 574.196 375.896 574.253Z" fill="#EF476F"/>
<path d="M1166.89 82.6474C1176.43 82.709 1184.16 90.436 1184.1 99.8867C1184.04 109.337 1176.21 116.964 1166.67 116.903C1157.12 116.841 1149.39 109.114 1149.45 99.6632C1149.52 90.2126 1157.34 82.5858 1166.89 82.6474ZM1166.67 115.531C1175.46 115.587 1182.66 108.566 1182.71 99.8778C1182.77 91.1892 1175.66 84.0759 1166.88 84.0192C1158.09 83.9626 1150.9 90.9837 1150.84 99.6722C1150.78 108.361 1157.89 115.474 1166.67 115.531Z" fill="#EF476F"/>
<path d="M981.906 831.179C991.454 831.241 999.178 838.968 999.117 848.418C999.056 857.869 991.233 865.496 981.685 865.434C972.138 865.373 964.413 857.646 964.474 848.195C964.535 838.744 972.358 831.117 981.906 831.179ZM981.694 864.062C990.48 864.119 997.676 857.098 997.732 848.409C997.788 839.721 990.683 832.608 981.897 832.551C973.112 832.494 965.916 839.515 965.86 848.204C965.804 856.892 972.909 864.006 981.694 864.062Z" fill="#EF476F"/>
<path d="M972.784 848.928C972.818 843.634 977.183 839.366 982.546 839.401C987.909 839.435 992.218 843.759 992.184 849.053C992.15 854.346 987.785 858.614 982.422 858.579C977.059 858.545 972.75 854.221 972.784 848.928Z" fill="#EF476F"/>
<path d="M1274.27 759.466C1273.22 754.276 1276.64 749.226 1281.9 748.193C1287.15 747.16 1292.26 750.532 1293.31 755.736C1294.36 760.925 1290.94 765.975 1285.68 767.009C1280.42 768.042 1275.32 764.669 1274.27 759.466Z" fill="#EF476F"/>
<path d="M666.43 219.19C661.072 219.155 656.702 223.421 656.668 228.717C656.634 234.013 660.949 238.334 666.306 238.368C671.663 238.403 676.034 234.138 676.068 228.842C676.102 223.546 671.787 219.224 666.43 219.19Z" fill="#EF476F"/>
<path d="M296.847 153.767C296.881 148.473 301.246 144.205 306.609 144.24C311.971 144.275 316.281 148.598 316.247 153.892C316.213 159.185 311.848 163.453 306.485 163.418C301.122 163.384 296.812 159.06 296.847 153.767Z" fill="#EF476F"/>
<path d="M1157.76 100.396C1157.8 95.1025 1162.16 90.8347 1167.53 90.8693C1172.89 90.9039 1177.2 95.2277 1177.16 100.521C1177.13 105.815 1172.77 110.082 1167.4 110.048C1162.04 110.013 1157.73 105.69 1157.76 100.396Z" fill="#EF476F"/>
<path d="M694.321 191.959C694.355 186.665 698.72 182.398 704.083 182.432C709.446 182.467 713.755 186.791 713.721 192.084C713.687 197.377 709.322 201.645 703.959 201.611C698.596 201.576 694.287 197.252 694.321 191.959Z" fill="#EF476F"/>
</g>
<defs>
<clipPath id="clip0_77_898">
<rect width="1434.01" height="1064.26" fill="white" transform="translate(1433.98 1073.49) rotate(-179.63)"/>
</clipPath>
</defs>
</svg>
