<svg width="806" height="806" viewBox="0 0 806 806" fill="none" xmlns="http://www.w3.org/2000/svg">
<path d="M801 203.562V390.912L609.517 199.421V12.0703L801 203.562Z" fill="#118AB2" stroke="#FDF8EF" stroke-width="10"/>
<path d="M599.517 203.562V390.913L408 199.42V12.0693L599.517 203.562Z" fill="#118AB2" stroke="#FDF8EF" stroke-width="10"/>
<path d="M801 602.437L609.517 793.929V606.579L801 415.055V602.437Z" fill="#118AB2" stroke="#FDF8EF" stroke-width="10"/>
<path d="M599.517 602.436L408 793.93V606.578L599.517 415.055V602.436Z" fill="#118AB2" stroke="#FDF8EF" stroke-width="10"/>
<path d="M398 203.562V390.913L206.483 199.42V12.0693L398 203.562Z" fill="#118AB2" stroke="#FDF8EF" stroke-width="10"/>
<path d="M196.483 203.562V390.912L5 199.421V12.0703L196.483 203.562Z" fill="#118AB2" stroke="#FDF8EF" stroke-width="10"/>
<path d="M398 602.436L206.483 793.93V606.578L398 415.055V602.436Z" fill="#118AB2" stroke="#FDF8EF" stroke-width="10"/>
<path d="M196.483 602.437L5 793.929V606.579L196.483 415.055V602.437Z" fill="#118AB2" stroke="#FDF8EF" stroke-width="10"/>
</svg>
