<svg width="138" height="142" viewBox="0 0 138 142" fill="none" xmlns="http://www.w3.org/2000/svg">
<g clip-path="url(#clip0_77_1085)">
<path d="M136.928 142C99.625 141.862 69.4555 110.456 69.5976 71.9085C106.901 72.046 137.07 103.453 136.928 142Z" fill="#118AB2"/>
<path d="M67.8456 71.9021C67.7035 110.45 37.3033 141.633 1.52386e-06 141.495C0.142096 102.948 30.5423 71.7646 67.8456 71.9021Z" fill="#118AB2"/>
<path d="M0.521584 0C37.8249 0.137509 67.9944 31.544 67.8523 70.0915C30.5489 69.954 0.379489 38.5475 0.521584 0Z" fill="#118AB2"/>
<path d="M69.6043 70.0979C69.7464 31.5504 100.147 0.367157 137.45 0.504666C137.308 39.0522 106.908 70.2354 69.6043 70.0979Z" fill="#118AB2"/>
</g>
<defs>
<clipPath id="clip0_77_1085">
<rect width="136.929" height="141.496" fill="white" transform="translate(0.521584) rotate(0.211204)"/>
</clipPath>
</defs>
</svg>
