<svg width="67" height="81" viewBox="0 0 67 81" fill="none" xmlns="http://www.w3.org/2000/svg">
<path d="M20.0264 53.2794C27.3316 42.2187 24.2873 27.3316 13.2266 20.0264C24.2873 27.3316 39.1744 24.2873 46.4796 13.2266C39.1744 24.2873 42.2187 39.1744 53.2794 46.4796C42.2187 39.1744 27.3316 42.2187 20.0264 53.2794Z" fill="#118AB2"/>
<path d="M34.5045 64.4299C38.0049 59.1299 36.5462 51.9965 31.2463 48.4961C36.5462 51.9965 43.6796 50.5378 47.18 45.2379C43.6796 50.5378 45.1383 57.6712 50.4383 61.1716C45.1383 57.6712 38.0049 59.1299 34.5045 64.4299Z" fill="#118AB2"/>
<path d="M15.5958 73.8492C19.0962 68.5492 17.6375 61.4158 12.3376 57.9155C17.6375 61.4158 24.7709 59.9571 28.2713 54.6572C24.7709 59.9571 26.2296 67.0905 31.5296 70.5909C26.2296 67.0905 19.0962 68.5492 15.5958 73.8492Z" fill="#118AB2"/>
</svg>
