<svg width="62" height="62" viewBox="0 0 62 62" fill="none" xmlns="http://www.w3.org/2000/svg">
<path d="M0 31.436V62H30.5407V49.7601C30.5407 39.6395 22.3435 31.436 12.2306 31.436H0Z" fill="#EF476F"/>
<path d="M31.4128 49.7601V62C48.2805 62 61.9536 48.3166 61.9536 31.436H49.723C39.6101 31.436 31.4128 39.6395 31.4128 49.7601Z" fill="#EF476F"/>
<path d="M0 30.564H12.2306C22.3435 30.564 30.5407 22.3605 30.5407 12.2399V0C13.673 0 0 13.6834 0 30.564Z" fill="#EF476F"/>
<path d="M49.723 30.564H61.9536C61.9536 13.6834 48.2805 0 31.4128 0V12.2399C31.4128 22.3605 39.6101 30.564 49.723 30.564Z" fill="#EF476F"/>
</svg>
