<svg width="716" height="206" viewBox="0 0 716 206" fill="none" xmlns="http://www.w3.org/2000/svg">
<g clip-path="url(#clip0_134_63)">
<path d="M10.05 2.38989H41.98L63.48 65.2499L85.48 2.38989H116.91L124.58 90.3899H103.58L98.17 19.3599L73.66 90.3899H51.78L28.16 19.8599L23.26 90.3899H3.77002L10.05 2.38989Z" fill="black"/>
<path d="M134.43 53.18C134.43 31.81 149.77 15.72 175.67 15.72C199.81 15.72 212.88 28.42 212.88 49.79V57.46H154.92C157.06 69.03 167.24 75.94 183.33 75.94C194.27 75.94 203.57 72.17 210.49 67.01V83.23C202.95 88.76 191.13 92.53 178.68 92.53C151.9 92.53 134.43 76.44 134.43 53.18ZM195.53 46.26C194.65 36.58 187.74 31.42 176.04 31.42C164.34 31.42 157.31 37.33 155.3 46.26H195.53Z" fill="black"/>
<path d="M265.41 32.81C252.59 32.81 245.8 41.48 245.8 53.93V90.39H225.43V17.85H245.67V34.7C250.83 21.75 260.13 15.72 273.96 15.72C292.82 15.72 303.5 27.66 303.5 50.04V90.4H283.01V54.57C283.01 39.86 277.23 32.82 265.41 32.82V32.81Z" fill="black"/>
<path d="M374.27 33.32H352.52V90.4H331.9V33.32H311.66V17.86H331.9V4.27L352.52 0V17.85H374.27V33.31V33.32Z" fill="black"/>
<path d="M467.91 17.85H488.15V37.59C491.8 23.13 499.22 16.47 509.4 16.47C513.8 16.47 517.32 17.73 519.83 19.49V38.47C517.06 36.46 512.92 35.08 507.76 35.08C496.45 35.08 488.53 42.87 488.53 59.34V90.39H467.91V17.85Z" fill="black"/>
<path d="M0 159.66C0 132.63 20.99 113.14 54.31 113.14C68.77 113.14 80.21 116.66 89.13 122.32V141.43C81.59 135.65 71.15 131.5 57.95 131.5C35.95 131.5 22.75 142.69 22.75 159.03C22.75 175.37 36.08 186.94 58.08 186.94C70.78 186.94 81.84 182.79 89.64 176.13V194.61C79.08 202.15 67.76 205.42 53.43 205.42C19.61 205.42 0 185.68 0 159.66Z" fill="black"/>
<path d="M102.94 166.83C102.94 144.83 119.28 128.61 145.56 128.61C171.84 128.61 188.18 144.7 188.18 166.83C188.18 188.96 172.09 205.43 145.56 205.43C119.03 205.43 102.94 188.58 102.94 166.83ZM167.44 166.95C167.44 153.87 159.14 144.95 145.57 144.95C132 144.95 123.69 153.88 123.69 166.95C123.69 180.02 131.99 189.2 145.57 189.2C159.15 189.2 167.44 180.02 167.44 166.95Z" fill="black"/>
<path d="M200.7 112.77H221.07V203.29H200.7V112.77Z" fill="black"/>
<path d="M236.77 112.77H257.14V203.29H236.77V112.77Z" fill="black"/>
<path d="M270.58 166.07C270.58 144.7 285.92 128.6 311.82 128.6C335.96 128.6 349.03 141.3 349.03 162.67V170.34H291.07C293.21 181.91 303.39 188.82 319.48 188.82C330.42 188.82 339.72 185.05 346.64 179.89V196.11C339.1 201.64 327.28 205.41 314.83 205.41C288.05 205.41 270.58 189.32 270.58 166.06V166.07ZM331.68 159.16C330.8 149.48 323.89 144.32 312.19 144.32C300.49 144.32 293.46 150.23 291.45 159.16H331.68Z" fill="black"/>
<path d="M361.87 166.83C361.87 145.21 378.59 128.61 406.25 128.61C419.7 128.61 428.63 132.26 434.79 136.78V154C429.01 149.47 420.96 145.7 410.52 145.7C393.42 145.7 383.24 154.75 383.24 166.95C383.24 179.15 392.67 188.2 410.9 188.2C420.71 188.2 429.38 184.55 435.17 180.28V196.75C427.12 202.28 417.44 205.42 405.63 205.42C377.97 205.42 361.88 188.32 361.88 166.82L361.87 166.83Z" fill="black"/>
<path d="M507.32 146.21H485.57V203.29H464.95V146.21H444.71V130.75H464.95V117.17L485.57 112.89V130.74H507.32V146.2V146.21Z" fill="black"/>
<path d="M516.33 114.65C516.33 109.12 521.48 104.97 528.27 104.97C535.06 104.97 540.09 109.12 540.09 114.65C540.09 120.18 535.06 124.71 528.27 124.71C521.48 124.71 516.33 120.44 516.33 114.65ZM517.96 133.01H538.45V203.29H517.96V133.01Z" fill="black"/>
<path d="M548.68 130.74H570.68L592.18 181.78L613.68 130.74H635.43L602.49 203.28H581.62L548.68 130.74Z" fill="black"/>
<path d="M636.78 166.07C636.78 144.7 652.12 128.6 678.02 128.6C702.16 128.6 715.23 141.3 715.23 162.67V170.34H657.27C659.41 181.91 669.59 188.82 685.68 188.82C696.62 188.82 705.92 185.05 712.84 179.89V196.11C705.3 201.64 693.48 205.41 681.03 205.41C654.25 205.41 636.78 189.32 636.78 166.06V166.07ZM697.88 159.16C697 149.48 690.09 144.32 678.39 144.32C666.69 144.32 659.66 150.23 657.65 159.16H697.88Z" fill="black"/>
<path d="M454.24 55.8501V91.8701H418.22V77.5401C418.22 65.5801 427.95 55.8501 439.91 55.8501H454.24Z" fill="black"/>
<path d="M454.23 53.8901H439.91C427.95 53.8901 418.22 44.1501 418.22 32.1901V17.8701C437.96 18.1401 453.97 34.1501 454.23 53.8901Z" fill="black"/>
<path d="M416.26 77.5401V91.8601C396.52 91.6001 380.51 75.5901 380.24 55.8501H394.56C406.53 55.8501 416.26 65.5801 416.26 77.5401Z" fill="black"/>
<path d="M416.26 17.8701V32.1901C416.26 44.1501 406.53 53.8901 394.56 53.8901H380.24C380.51 34.1501 396.52 18.1401 416.26 17.8701Z" fill="black"/>
</g>
<defs>
<clipPath id="clip0_134_63">
<rect width="715.23" height="205.42" fill="white"/>
</clipPath>
</defs>
</svg>
